<?xml version="1.0" standalone="no"?>
<!DOCTYPE svg PUBLIC "-//W3C//DTD SVG 20010904//EN"
 "http://www.w3.org/TR/2001/REC-SVG-20010904/DTD/svg10.dtd">
<svg version="1.0" xmlns="http://www.w3.org/2000/svg"
 width="512.000000pt" height="512.000000pt" viewBox="0 0 512.000000 512.000000"
 preserveAspectRatio="xMidYMid meet">
<metadata>
Created by potrace 1.14, written by Peter Selinger 2001-2017
</metadata>
<g transform="translate(0.000000,512.000000) scale(0.100000,-0.100000)"
fill="#000000" stroke="none">
<path d="M2235 4770 c6 -10 32 -153 41 -231 l5 -47 -102 -101 c-94 -93 -101
-101 -76 -102 33 -2 66 -6 70 -9 1 -1 16 -4 32 -6 118 -17 158 -23 160 -26 2
-2 27 -52 56 -113 29 -60 56 -112 61 -113 4 -2 5 -9 1 -15 -4 -7 1 -6 10 2 9
7 17 20 17 27 0 8 5 14 10 14 6 0 10 7 10 14 0 8 12 37 26 63 15 26 35 65 46
86 10 20 23 38 28 38 13 2 29 6 33 8 3 3 94 13 130 15 15 0 27 4 27 8 0 4 8 6
18 4 9 -2 27 0 40 3 27 7 40 -10 -98 126 l-81 80 7 50 c4 28 7 55 8 60 1 6 5
16 9 23 5 6 6 12 4 12 -2 0 1 31 8 69 l12 70 -96 -51 c-53 -27 -109 -58 -126
-67 -28 -17 -33 -17 -65 -2 -19 9 -40 21 -46 26 -6 6 -32 19 -58 30 -25 10
-46 23 -46 27 0 4 -8 8 -19 8 -10 0 -24 7 -31 15 -14 16 -35 21 -25 5z"/>
<path d="M3360 4500 c6 -11 8 -25 5 -30 -3 -5 -1 -11 4 -15 6 -3 8 -12 4 -20
-3 -9 -1 -21 4 -28 4 -6 8 -27 8 -45 0 -27 -11 -44 -64 -97 -36 -36 -63 -66
-60 -69 2 -2 33 -7 69 -11 118 -13 107 -6 154 -97 19 -37 37 -71 41 -78 4 -6
26 28 51 78 36 72 48 88 67 88 38 0 157 16 157 21 0 3 -25 30 -55 61 -30 31
-55 60 -55 65 0 4 -5 5 -10 2 -11 -7 -8 73 4 105 8 23 16 90 11 90 -3 0 -41
-20 -85 -44 l-80 -44 -42 21 c-24 12 -45 24 -48 27 -6 6 -79 40 -86 40 -2 0 0
-9 6 -20z"/>
<path d="M1316 4437 c8 -39 16 -83 19 -96 3 -18 -9 -36 -60 -85 -36 -35 -65
-67 -65 -73 0 -5 12 -9 28 -8 15 1 31 0 36 -3 6 -3 24 -7 40 -8 69 -6 104 -24
90 -45 -2 -4 -1 -9 3 -11 5 -1 21 -29 36 -60 16 -32 32 -58 35 -58 4 0 25 38
47 84 24 53 45 84 55 84 8 0 33 3 55 7 47 9 71 12 103 14 23 1 23 2 -7 26 -90
77 -127 127 -111 156 4 7 11 32 14 54 4 22 8 53 11 68 l4 28 -42 -23 c-23 -13
-44 -25 -47 -28 -13 -13 -89 -47 -92 -41 -2 3 -40 25 -84 48 l-82 43 14 -73z"/>
<path d="M815 3873 c2 -10 4 -18 6 -18 1 0 3 -13 4 -30 2 -16 4 -30 5 -30 1 0
3 -8 5 -17 2 -10 -1 -18 -6 -18 -5 0 -9 -7 -9 -15 0 -8 -3 -15 -7 -15 -14 -1
-66 -51 -59 -57 3 -3 27 -8 53 -11 57 -5 71 -15 91 -62 26 -65 33 -65 60 -5
26 57 22 54 107 70 11 2 27 4 35 4 8 1 -3 18 -29 45 -33 34 -43 52 -45 80 -1
20 3 36 8 36 5 0 7 3 3 6 -3 3 -2 17 4 31 l9 24 -60 -32 -60 -32 -59 32 c-50
26 -59 28 -56 14z"/>
<path d="M2595 3842 c-3 -3 -31 -7 -63 -8 -31 -1 -57 -3 -57 -4 0 -1 -22 -3
-50 -5 -89 -6 -214 -22 -269 -36 -23 -5 -50 -12 -60 -14 -11 -3 -39 -14 -63
-25 -23 -11 -47 -20 -53 -20 -5 0 -10 -5 -10 -10 0 -6 -3 -9 -7 -8 -10 3 -92
-48 -114 -71 -31 -31 -59 -51 -59 -43 0 10 -51 37 -62 34 -5 -1 -8 2 -8 6 0 5
-7 9 -15 10 -37 4 -112 3 -130 -2 -59 -13 -75 -19 -75 -28 0 -5 -4 -7 -8 -4
-12 7 -112 -82 -112 -100 0 -8 -4 -14 -10 -14 -16 0 -32 -82 -27 -133 4 -26
16 -64 27 -85 25 -44 98 -100 146 -114 37 -10 39 -18 24 -83 -5 -22 -11 -62
-15 -89 -3 -27 -8 -52 -11 -57 -3 -5 0 -9 7 -9 8 0 8 -4 1 -13 -10 -12 -8
-425 3 -542 2 -27 7 -98 10 -157 l5 -108 -35 0 c-51 0 -183 -78 -170 -101 3
-4 1 -9 -5 -11 -19 -6 -19 -45 1 -59 10 -7 19 -19 19 -25 0 -14 40 -41 58 -38
6 1 18 2 26 3 7 0 34 17 59 36 25 19 48 35 50 35 5 0 0 -191 -8 -305 -4 -49
-8 -116 -9 -148 -2 -32 -6 -60 -9 -64 -4 -3 -2 -14 4 -24 5 -11 6 -19 1 -19
-4 0 -7 -48 -6 -107 1 -60 3 -108 4 -108 1 0 3 -11 4 -25 0 -14 5 -31 10 -39
7 -10 6 -12 -4 -6 -9 5 -11 4 -6 -4 5 -7 10 -27 13 -44 14 -93 106 -291 167
-360 76 -87 78 -92 46 -102 -11 -3 -20 -11 -20 -17 0 -6 -3 -9 -6 -5 -9 9 -83
-68 -94 -99 -6 -15 -7 -36 -3 -48 4 -11 7 -24 8 -28 0 -4 11 -17 25 -30 18
-17 36 -23 70 -23 40 0 59 9 147 69 l102 68 35 -22 c20 -12 36 -19 36 -16 0 4
10 0 23 -8 12 -7 36 -17 52 -21 43 -12 45 -12 48 -15 3 -2 44 -9 117 -18 64
-9 194 -8 330 3 52 4 103 8 113 8 9 1 17 4 17 7 0 3 15 6 33 7 35 1 92 9 92
13 0 1 14 3 30 5 31 3 88 11 137 21 15 3 29 5 30 5 5 -2 146 47 166 58 17 9
24 6 44 -14 24 -25 45 -34 32 -13 -4 7 -3 8 5 4 6 -4 9 -12 5 -17 -7 -13 52
-72 99 -98 94 -53 168 -3 157 104 -5 52 -70 155 -98 155 -13 0 -4 36 14 51 8
6 14 18 14 26 0 8 6 21 13 28 29 33 37 45 37 54 0 5 6 16 13 23 45 46 100 238
113 393 5 62 6 449 1 545 -2 31 -7 62 -12 70 -6 9 -4 11 5 5 9 -5 11 -4 6 3
-4 7 -9 44 -11 83 -3 66 -2 70 14 55 10 -9 23 -16 29 -16 7 0 12 -4 12 -9 0
-24 115 -47 140 -28 51 40 42 120 -21 179 -43 40 -78 52 -163 57 -20 1 -23 6
-24 44 0 23 -3 206 -6 407 -5 316 -9 425 -16 425 -1 0 -3 26 -5 58 -2 31 -7
62 -10 68 -4 6 -9 23 -11 38 -4 24 0 29 45 48 51 21 111 88 111 124 0 10 4 20
9 23 12 8 11 112 -1 151 -35 113 -111 168 -230 167 -49 0 -145 -19 -163 -32
-24 -17 -44 -17 -62 -2 -28 25 -53 40 -103 64 -25 11 -47 24 -50 28 -6 8 -70
30 -84 29 -5 0 -12 3 -15 8 -17 25 -160 47 -313 49 -87 1 -160 -1 -163 -4z"/>
<path d="M4094 3783 c3 -26 8 -58 10 -69 3 -15 -3 -25 -20 -34 -13 -8 -24 -19
-24 -27 0 -7 -6 -13 -14 -13 -23 0 -28 -30 -6 -31 29 -2 59 -6 65 -9 6 -3 22
-7 34 -9 5 0 19 -26 32 -56 13 -30 26 -55 29 -55 6 1 39 72 39 84 -1 9 27 29
44 32 4 1 8 2 10 4 1 1 20 3 42 4 22 1 40 5 40 9 0 4 -18 26 -41 49 -27 28
-40 50 -37 63 2 11 6 39 9 62 l6 42 -55 -30 c-49 -26 -58 -28 -84 -17 -15 7
-30 15 -33 18 -3 3 -16 11 -29 18 l-24 14 7 -49z"/>
</g>
</svg>
